<svg width="48" height="66" viewBox="0 0 48 66" fill="none" xmlns="http://www.w3.org/2000/svg">
<mask id="mask0_3_19" style="mask-type:luminance" maskUnits="userSpaceOnUse" x="0" y="0" width="48" height="66">
<path d="M0.204224 0.983765H47.1678V65.7643H0.204224V0.983765Z" fill="white"/>
</mask>
<g mask="url(#mask0_3_19)">
<path d="M22.7687 40.9233C14.5021 40.9233 7.79603 34.2175 7.79603 25.9302C7.79603 17.6639 14.5021 10.9581 22.7687 10.9581C31.0564 10.9581 37.7625 17.6639 37.7625 25.9302C37.7625 34.2175 31.0564 40.9233 22.7687 40.9233ZM22.7687 4.75842C11.0858 4.75842 1.59607 14.2267 1.59607 25.9302C1.59607 37.6337 17.349 64.7099 22.7687 64.7099C28.083 64.7099 43.9624 37.6337 43.9624 25.9302C43.9624 14.2267 34.4938 4.75842 22.7687 4.75842Z" fill="#4AD66D"/>
</g>
</svg>
