<svg width="1002" height="141" viewBox="0 0 1002 141" fill="none" xmlns="http://www.w3.org/2000/svg">
<path d="M44.7297 25.7975C50.6344 25.7975 55.7167 27.147 59.9976 29.8462C64.3207 32.5033 67.6316 35.9616 69.9513 40.2212C72.3132 44.502 73.4941 49.0358 73.4941 53.8015C73.4941 57.6394 72.6084 61.393 70.8792 65.1044C69.1921 68.8157 66.5139 72.021 62.8656 74.7202C68.939 77.2507 73.1989 81.0464 75.6873 86.1074C78.1546 91.1262 79.3988 96.145 79.3988 101.206C79.3988 106.436 78.2179 111.539 75.856 116.473C73.5363 121.366 70.12 125.393 65.5649 128.535C61.0098 131.698 55.316 133.259 48.5256 133.259H0.528625V25.7975H44.7297ZM44.4766 69.2375C48.6943 69.2375 51.9208 67.6981 54.1772 64.5983C56.4126 61.4562 57.5514 58.0612 57.5514 54.392C57.5514 50.8493 56.4969 47.644 54.4303 44.7761C52.3426 41.8661 49.116 40.3899 44.7297 40.3899H15.7122V69.2375H44.4766ZM48.5256 118.329C52.0051 118.329 54.8731 117.528 57.1296 115.883C59.4282 114.196 61.1364 112.045 62.2751 109.388C63.4561 106.752 64.0466 104.074 64.0466 101.375C64.0466 98.5068 63.4561 95.8076 62.2751 93.2771C61.1364 90.7466 59.4282 88.6801 57.1296 87.0353C54.8731 85.3483 52.0051 84.5048 48.5256 84.5048H15.7122V118.329H48.5256Z" fill="#4AD66D"/>
<path d="M126.339 40.0525V119.004H146.077V133.259H91.2479V119.004H110.987V40.0525H91.2479V25.9661H146.077V40.0525H126.339Z" fill="#4AD66D"/>
<path d="M158.081 80.3716C158.081 72.9067 159.452 65.9057 162.215 59.3686C164.956 52.7893 168.626 47.0957 173.181 42.2456C177.841 37.4798 183.472 33.5576 190.051 30.521C196.631 27.4844 203.506 25.9661 210.718 25.9661C218.816 25.9661 226.239 27.632 232.987 30.9428C239.735 34.2113 245.429 38.8294 250.111 44.7761C254.834 50.6806 258.209 57.6394 260.233 65.6104H245.049C242.224 57.6394 237.753 51.5662 231.637 47.3909C225.501 43.2367 218.52 41.1491 210.718 41.1491C205.657 41.1491 200.722 42.2456 195.956 44.4387C191.169 46.5896 187.12 49.4575 183.809 53.0423C180.435 56.4796 177.778 60.5284 175.88 65.1887C173.961 69.8701 173.012 74.9311 173.012 80.3716C173.012 85.6646 173.94 90.6412 175.796 95.3015C177.693 99.9196 180.308 103.99 183.64 107.532C186.951 111.033 191.021 113.774 195.872 115.798C200.701 117.823 205.657 118.835 210.718 118.835C218.816 118.835 226.007 116.621 232.312 112.171C238.66 107.68 243.215 101.438 245.977 93.4458H260.992C258.968 101.438 255.551 108.502 250.786 114.618C246.062 120.754 240.262 125.541 233.409 128.957C226.597 132.331 219.027 134.018 210.718 134.018C203.506 134.018 196.673 132.647 190.22 129.885C183.809 127.08 178.263 123.221 173.602 118.329C169.047 113.5 165.294 107.827 162.383 101.29C159.515 94.711 158.081 87.7522 158.081 80.3716Z" fill="#4AD66D"/>
<path d="M308.081 40.0525V119.004H327.82V133.259H272.991V119.004H292.729V40.0525H272.991V25.9661H327.82V40.0525H308.081Z" fill="#4AD66D"/>
<path d="M382.729 137.239V38.2127H345.782V32.3082H425.834V38.2127H388.887V137.239H382.729Z" fill="#4AD66D"/>
<path d="M512.144 140.191C508.643 140.191 506.007 139.095 504.214 136.902C502.401 134.666 501.009 131.799 499.997 128.298L493.839 105.524C492.763 101.137 490.887 97.4894 488.187 94.5582C485.488 91.5849 481.544 90.0877 476.378 90.0877H442.383V137.239H436.226V32.3082H482.789C493.185 32.3082 501.452 34.9231 507.588 40.1527C513.704 45.3402 516.783 52.2991 516.783 61.0714C516.783 68.3888 514.337 74.5674 509.444 79.6284C504.552 84.6893 497.972 87.7892 489.706 88.9068V89.0755C492.405 90.6571 494.598 92.8712 496.285 95.7391C497.972 98.5648 499.322 101.77 500.334 105.355L506.154 127.202C506.661 129.521 507.356 131.314 508.263 132.6C509.212 133.907 510.646 134.54 512.565 134.54C515.939 134.54 518.829 132.6 521.254 128.72L525.303 132.769C523.384 135.468 521.275 137.366 518.976 138.504C516.72 139.622 514.442 140.191 512.144 140.191ZM442.383 84.0989H482.789C491.161 84.0989 497.846 82.0534 502.865 77.9414C507.926 73.7871 510.456 68.2201 510.456 61.2401C510.456 54.2813 507.926 48.7142 502.865 44.5389C497.846 40.3214 491.161 38.2127 482.789 38.2127H442.383V84.0989Z" fill="#4AD66D"/>
<path d="M526.781 137.239L568.199 32.3082H576.128L617.63 137.239H611.05L600.422 109.994H543.989L533.361 137.239H526.781ZM546.098 104.174H598.313L572.416 38.297H572.079L546.098 104.174Z" fill="#4AD66D"/>
<path d="M662.158 137.239L620.572 32.3082H627.151L665.701 130.829H666.038L704.503 32.3082H711.083L669.497 137.239H662.158Z" fill="#4AD66D"/>
<path d="M721.486 137.239V32.3082H792.343V38.2127H727.644V79.797H786.354V85.6172H727.644V131.419H793.777V137.239H721.486Z" fill="#4AD66D"/>
<path d="M844.157 140.95C836.396 140.95 829.395 139.474 823.153 136.564C816.91 133.654 811.807 129.479 807.885 124.081C803.941 118.682 801.474 112.356 800.462 105.102L806.451 103.752C807.294 109.994 809.361 115.519 812.693 120.285C816.004 125.008 820.369 128.678 825.768 131.25C831.166 133.844 837.282 135.13 844.157 135.13C853.942 135.13 861.723 132.895 867.522 128.382C873.301 123.828 876.211 117.839 876.211 110.416C876.211 104.575 874.228 99.8512 870.306 96.2452C866.363 92.6604 860.015 89.8136 851.242 87.7259L832.347 83.3397C814.907 79.3542 806.24 71.0879 806.366 58.5409C806.366 49.4312 809.361 42.1771 815.392 36.7787C821.402 31.3382 829.5 28.5968 839.686 28.5968C848.838 28.5968 856.641 31.3382 863.052 36.7787C869.462 42.1771 873.448 49.4944 875.03 58.7096L869.209 60.0592C867.902 52.2569 864.612 46.0361 859.34 41.418C854.047 36.7577 847.552 34.417 839.855 34.417C831.461 34.417 824.776 36.589 819.778 40.9119C814.823 45.1926 812.355 50.8651 812.355 57.9505C812.355 63.0115 814.085 67.0602 817.585 70.0968C821.065 73.1334 826.611 75.5585 834.203 77.3509L853.014 81.9058C872.584 86.292 882.369 95.5704 882.369 109.741C882.369 115.983 880.787 121.466 877.645 126.189C874.482 130.871 870.074 134.498 864.401 137.07C858.707 139.643 851.959 140.95 844.157 140.95Z" fill="#4AD66D"/>
<path d="M898.307 20.4149L894.426 18.3905L903.283 0.00231934L907.164 1.94236L898.307 20.4149ZM894.258 137.239V32.3082H900.415V137.239H894.258Z" fill="#4AD66D"/>
<path d="M910.918 137.239L952.335 32.3082H960.265L1001.77 137.239H995.187L984.558 109.994H928.126L917.498 137.239H910.918ZM930.235 104.174H982.449L956.553 38.297H956.216L930.235 104.174Z" fill="#4AD66D"/>
</svg>
