<svg width="985" height="184" viewBox="0 0 985 184" fill="none" xmlns="http://www.w3.org/2000/svg">
<path d="M812.862 55.0381C792.386 55.1014 775.768 71.8026 775.831 92.2785C775.895 112.754 792.597 129.371 813.073 129.308C833.55 129.266 850.168 112.543 850.104 92.0887C850.041 71.5917 833.339 54.9749 812.862 55.0381ZM813.094 133.251C802.107 133.272 791.774 129.034 784.014 121.295C776.232 113.556 771.93 103.265 771.909 92.2996C771.867 81.3341 776.106 71.0013 783.845 63.22C791.584 55.4388 801.875 51.158 812.841 51.1159C823.807 51.0948 834.14 55.3333 841.922 63.0724C849.704 70.7904 854.006 81.1021 854.027 92.0676C854.069 103.033 849.83 113.345 842.091 121.126C834.351 128.907 824.06 133.209 813.094 133.251Z" fill="#4AD66D"/>
<mask id="mask0_6_255" style="mask-type:luminance" maskUnits="userSpaceOnUse" x="901" y="49" width="84" height="85">
<path d="M901.433 49.8717H984.184V133.673H901.433V49.8717Z" fill="white"/>
</mask>
<g mask="url(#mask0_6_255)">
<path d="M943.272 54.6796C922.796 54.7429 906.178 71.4441 906.241 91.92C906.305 112.396 923.007 129.013 943.483 128.949C963.96 128.886 980.578 112.185 980.514 91.7091C980.472 71.2333 963.749 54.6164 943.272 54.6796ZM943.504 132.872C932.517 132.914 922.205 128.675 914.424 120.936C906.642 113.197 902.34 102.907 902.319 91.9411C902.277 80.9545 906.516 70.6428 914.255 62.8616C921.994 55.0803 932.307 50.7785 943.272 50.7574C954.238 50.7152 964.551 54.9538 972.332 62.6929C980.114 70.4319 984.416 80.7226 984.437 91.688C984.479 102.675 980.219 112.986 972.501 120.768C964.761 128.549 954.47 132.851 943.504 132.872Z" fill="#4AD66D"/>
</g>
<path d="M875.769 90.8867C875.326 90.9078 875.01 90.4649 874.651 90.1697C873.829 89.4527 873.555 88.5038 874.272 87.6603L919.443 34.3936C920.139 33.5501 921.383 33.4657 922.205 34.1616C923.028 34.8575 923.133 36.1016 922.437 36.924L877.266 90.2119C876.865 90.6547 876.317 90.8867 875.769 90.8867Z" fill="#4AD66D"/>
<path d="M866.912 89.8323C866.131 89.8323 865.393 89.3895 865.077 88.6093L845.359 39.9606C844.959 38.9484 845.444 37.8097 846.435 37.4091C847.447 36.9873 848.586 37.4723 849.008 38.4845L868.725 87.1331C869.126 88.1453 868.388 88.7991 867.397 89.1997C867.144 89.3051 867.144 89.8323 866.912 89.8323Z" fill="#4AD66D"/>
<path d="M812.968 94.1341C812.546 94.1341 812.145 94.0076 811.787 93.7545C810.922 93.1008 810.754 91.8778 811.407 90.9921C811.766 90.5071 820.897 78.4873 838.485 64.5696C848.776 56.4088 859.847 49.3023 871.404 43.4611C885.828 36.186 901.011 30.8298 916.554 27.6034C917.608 27.3925 918.662 28.0673 918.873 29.1217C919.084 30.1971 918.409 31.2304 917.355 31.4413C882.981 38.5899 856.874 55.0381 841.015 67.564C823.807 81.1654 814.634 93.2485 814.528 93.3539C814.149 93.8811 813.558 94.1341 812.968 94.1341Z" fill="#4AD66D"/>
<path d="M943.378 93.7756C942.598 93.7756 941.859 93.3117 941.564 92.5315L911.345 16.6801L927.815 9.59475C928.806 9.17301 929.966 9.63693 930.387 10.628C930.83 11.6191 930.366 12.779 929.375 13.2007L916.427 18.7889L945.213 91.0975C945.592 92.0887 945.107 93.2274 944.095 93.628C943.863 93.7335 943.631 93.7756 943.378 93.7756Z" fill="#4AD66D"/>
<path d="M870.455 89.0732C866.617 89.0732 863.495 92.2152 863.495 96.0531C863.517 99.891 866.659 103.012 870.497 103.012C874.335 102.991 877.456 99.8488 877.435 96.0109C877.435 92.173 874.293 89.0521 870.455 89.0732ZM870.497 106.934C864.487 106.934 859.594 102.063 859.573 96.0531C859.552 90.0432 864.444 85.1509 870.434 85.1298C876.444 85.1087 881.357 89.9799 881.357 95.9898C881.378 102 876.507 106.913 870.497 106.934Z" fill="#4AD66D"/>
<path d="M858.35 40.1926L836.945 40.2558C834.689 40.2558 832.707 38.2947 832.707 36.0173L832.685 34.7099C832.685 32.3902 834.562 30.5135 836.84 30.4924H836.966L858.287 31.5467C860.501 31.5889 862.272 33.4657 862.272 35.7431V37.0716C862.293 38.5899 860.944 40.1926 858.35 40.1926Z" fill="#4AD66D"/>
<mask id="mask1_6_255" style="mask-type:luminance" maskUnits="userSpaceOnUse" x="0" y="53" width="48" height="66">
<path d="M0.204224 53.9838H47.1678V118.764H0.204224V53.9838Z" fill="white"/>
</mask>
<g mask="url(#mask1_6_255)">
<path d="M22.7687 93.9233C14.5021 93.9233 7.79603 87.2175 7.79603 78.9302C7.79603 70.6639 14.5021 63.9581 22.7687 63.9581C31.0564 63.9581 37.7625 70.6639 37.7625 78.9302C37.7625 87.2175 31.0564 93.9233 22.7687 93.9233ZM22.7687 57.7584C11.0858 57.7584 1.59607 67.2267 1.59607 78.9302C1.59607 90.6337 17.349 117.71 22.7687 117.71C28.083 117.71 43.9624 90.6337 43.9624 78.9302C43.9624 67.2267 34.4938 57.7584 22.7687 57.7584Z" fill="#4AD66D"/>
</g>
<path d="M15.3456 131.67C15.3456 127.579 18.6775 124.226 22.7687 124.226C26.8809 124.226 30.2128 127.579 30.2128 131.67C30.2128 135.782 26.8809 139.114 22.7687 139.114C18.6775 139.114 15.3456 135.782 15.3456 131.67Z" fill="#4AD66D"/>
<path d="M350.312 36.1438C342.024 36.1438 335.318 29.4591 335.318 21.1717C335.318 12.9055 342.024 6.1997 350.312 6.1997C358.579 6.1997 365.285 12.9055 365.285 21.1717C365.285 29.4591 358.579 36.1438 350.312 36.1438ZM350.312 0C338.608 0 329.118 9.46824 329.118 21.1717C329.118 32.8753 344.871 59.9726 350.312 59.9726C355.605 59.9726 371.485 32.8753 371.485 21.1717C371.485 9.46824 361.995 0 350.312 0Z" fill="#4AD66D"/>
<path d="M342.868 73.9113C342.868 69.7993 346.2 66.4675 350.312 66.4675C354.403 66.4675 357.735 69.7993 357.735 73.9113C357.735 78.0234 354.403 81.3552 350.312 81.3552C346.2 81.3552 342.868 78.0234 342.868 73.9113Z" fill="#4AD66D"/>
<path d="M576.716 123.91C568.449 123.91 561.743 117.204 561.743 108.937C561.743 100.65 568.449 93.9443 576.716 93.9443C585.003 93.9443 591.71 100.65 591.71 108.937C591.71 117.204 585.003 123.91 576.716 123.91ZM576.716 87.7446C565.012 87.7446 555.543 97.2129 555.543 108.937C555.543 120.62 571.296 147.717 576.716 147.717C582.009 147.717 597.91 120.62 597.91 108.937C597.91 97.2129 588.42 87.7446 576.716 87.7446Z" fill="#4AD66D"/>
<path d="M569.272 161.656C569.272 157.565 572.604 154.233 576.716 154.233C580.828 154.233 584.16 157.565 584.16 161.656C584.16 165.768 580.828 169.1 576.716 169.1C572.604 169.1 569.272 165.768 569.272 161.656Z" fill="#4AD66D"/>
<path d="M770.37 133.251C770.37 133.251 770.348 133.251 770.327 133.251C770.306 133.251 766.257 133.23 759.973 133.146C758.897 133.125 758.054 132.323 758.075 131.269C758.075 130.215 758.94 129.413 759.973 129.413C759.994 129.413 759.994 129.413 759.994 129.413C766.321 129.413 770.37 129.561 770.412 129.561C771.466 129.582 772.31 130.383 772.289 131.438C772.267 132.492 771.424 133.251 770.37 133.251Z" fill="#4AD66D"/>
<mask id="mask2_6_255" style="mask-type:luminance" maskUnits="userSpaceOnUse" x="63" y="83" width="685" height="101">
<path d="M63.448 83.8013H747.805V183.439H63.448V83.8013Z" fill="white"/>
</mask>
<g mask="url(#mask2_6_255)">
<path d="M380.068 91.3506C379.878 91.3506 379.709 91.2241 379.54 91.1608C373.319 89.3895 367.541 88.3773 362.374 88.3773H362.185C361.278 88.3773 360.329 88.5249 359.359 88.5881C358.304 88.6514 357.398 87.8923 357.334 86.859C357.271 85.7835 358.072 84.7924 359.127 84.7291C360.16 84.6659 361.172 84.5394 362.164 84.5394H362.374C367.9 84.5394 374.015 85.5937 380.595 87.4916C381.607 87.7868 382.197 88.8834 381.902 89.8956C381.67 90.7391 380.89 91.3506 380.068 91.3506ZM324.964 99.3005C324.247 99.3005 323.572 98.921 323.235 98.2251C322.771 97.2762 323.171 96.1374 324.12 95.6735C331.375 92.1308 337.891 89.5371 344.007 87.7236C345.019 87.4283 346.094 87.9977 346.39 89.0099C346.685 90.0221 346.115 91.0975 345.082 91.3928C339.177 93.143 332.872 95.6735 325.786 99.1108C325.533 99.2584 325.238 99.3005 324.964 99.3005ZM413.071 105.859C412.754 105.859 412.438 105.795 412.143 105.627C405.31 101.831 399.174 98.7734 393.416 96.3061C392.425 95.8844 391.982 94.7668 392.404 93.7967C392.826 92.8267 393.944 92.3628 394.914 92.7845C400.797 95.315 407.039 98.4149 413.999 102.274C414.926 102.78 415.264 103.961 414.758 104.889C414.399 105.521 413.746 105.859 413.071 105.859ZM293.648 117.351C293.015 117.351 292.404 117.035 292.045 116.466C291.476 115.58 291.729 114.399 292.614 113.809C299.299 109.528 305.246 105.922 310.75 102.78C311.678 102.253 312.838 102.569 313.365 103.497C313.871 104.404 313.555 105.585 312.648 106.091C307.186 109.212 301.324 112.775 294.681 117.035C294.365 117.246 294.006 117.351 293.648 117.351ZM443.902 124.753C443.543 124.753 443.185 124.648 442.847 124.437C436.015 119.966 430.363 116.381 425.049 113.155C424.142 112.607 423.868 111.426 424.416 110.519C424.964 109.612 426.124 109.338 427.031 109.886C432.388 113.134 438.081 116.74 444.956 121.231C445.842 121.801 446.095 123.003 445.504 123.867C445.146 124.437 444.534 124.753 443.902 124.753ZM723.849 133.251C722.815 133.251 721.951 132.45 721.93 131.396C721.93 130.341 722.773 129.54 723.807 129.519C730.133 129.392 737.008 129.413 744.262 129.413H744.979C746.034 129.413 746.898 130.278 746.898 131.332C746.898 132.387 746.034 133.251 744.979 133.251H744.262C737.029 133.251 730.175 133.251 723.891 133.251C723.87 133.251 723.87 133.251 723.849 133.251ZM687.767 135.255C686.818 135.255 685.995 134.559 685.89 133.589C685.742 132.534 686.501 131.585 687.535 131.459C692.849 130.784 699.977 130.257 708.771 129.898C708.792 129.898 708.834 129.898 708.855 129.898C709.867 129.898 710.732 130.721 710.753 131.733C710.816 132.808 709.994 133.694 708.939 133.736C700.251 134.095 693.207 134.601 688.02 135.255C687.935 135.255 687.872 135.255 687.767 135.255ZM263.597 137.448C262.964 137.448 262.374 137.152 261.994 136.604C261.404 135.74 261.636 134.538 262.5 133.947L264.187 132.808C269.396 129.266 274.753 125.597 280.025 122.075C280.91 121.484 282.091 121.738 282.682 122.602C283.272 123.488 283.04 124.669 282.155 125.259C276.904 128.781 271.547 132.429 266.338 135.972L264.672 137.11C264.335 137.342 263.955 137.448 263.597 137.448ZM474.058 144.702C473.7 144.702 473.341 144.596 473.004 144.385C468.554 141.475 464.02 138.439 459.613 135.529L455.374 132.703C454.488 132.113 454.256 130.911 454.847 130.046C455.437 129.16 456.618 128.928 457.504 129.519L461.742 132.323C466.129 135.255 470.663 138.27 475.112 141.201C475.998 141.771 476.23 142.951 475.661 143.837C475.302 144.406 474.691 144.702 474.058 144.702ZM653.456 146.178C652.718 146.178 652.022 145.756 651.706 145.039C651.284 144.069 651.727 142.93 652.697 142.509C660.521 139.092 667.037 136.583 672.583 134.812C673.574 134.495 674.671 135.044 674.987 136.056C675.304 137.068 674.755 138.144 673.743 138.46C668.323 140.189 661.934 142.656 654.215 146.03C653.983 146.136 653.709 146.178 653.456 146.178ZM85.0424 154.613C84.7682 154.613 84.4941 154.55 84.2199 154.444C78.0411 151.513 71.6302 148.392 65.1772 145.166C64.2282 144.681 63.8487 143.521 64.3337 142.593C64.7976 141.644 65.9575 141.264 66.9065 141.728C73.3173 144.955 79.7071 148.076 85.8648 150.965C86.8138 151.429 87.2356 152.567 86.7716 153.516C86.4553 154.212 85.7594 154.613 85.0424 154.613ZM233.462 157.439C232.829 157.439 232.196 157.122 231.838 156.553C231.269 155.646 231.543 154.465 232.428 153.896C237.616 150.648 243.226 146.958 250.079 142.361C250.965 141.771 252.146 142.003 252.736 142.888C253.327 143.774 253.095 144.955 252.209 145.545C245.334 150.163 239.704 153.854 234.474 157.143C234.158 157.333 233.799 157.439 233.462 157.439ZM620.643 161.34C619.926 161.34 619.23 160.939 618.913 160.243C618.45 159.273 618.871 158.134 619.841 157.692C622.983 156.237 626.147 154.739 629.268 153.263C632.536 151.745 635.763 150.206 638.968 148.729C639.938 148.287 641.077 148.687 641.52 149.657C641.963 150.606 641.541 151.745 640.592 152.188C637.387 153.685 634.16 155.203 630.892 156.743C627.771 158.219 624.607 159.695 621.444 161.171C621.17 161.297 620.917 161.34 620.643 161.34ZM504.763 163.807C504.425 163.807 504.109 163.723 503.814 163.554C498.31 160.433 492.384 156.827 485.657 152.567C484.75 151.998 484.476 150.817 485.045 149.931C485.614 149.025 486.816 148.772 487.702 149.32C494.366 153.558 500.271 157.122 505.69 160.222C506.618 160.749 506.935 161.909 506.407 162.837C506.07 163.448 505.416 163.807 504.763 163.807ZM118.13 169.184C117.877 169.184 117.645 169.142 117.413 169.058C111.297 166.59 104.739 163.786 97.9062 160.728C96.9362 160.306 96.4933 159.168 96.9362 158.198C97.3579 157.249 98.4967 156.806 99.4668 157.249C106.257 160.285 112.773 163.048 118.847 165.494C119.817 165.895 120.302 167.012 119.901 168.003C119.606 168.741 118.868 169.184 118.13 169.184ZM201.871 174.983C201.154 174.983 200.459 174.561 200.142 173.845C199.699 172.896 200.121 171.757 201.091 171.314C206.785 168.741 212.858 165.578 219.649 161.656C220.577 161.129 221.737 161.424 222.285 162.352C222.812 163.259 222.496 164.44 221.568 164.967C214.672 168.952 208.472 172.179 202.673 174.815C202.42 174.92 202.146 174.983 201.871 174.983ZM587.386 175.489C586.606 175.489 585.868 175.025 585.594 174.245C585.235 173.233 585.742 172.136 586.733 171.778C592.448 169.732 598.795 167.16 606.197 163.891C607.167 163.47 608.306 163.912 608.728 164.882C609.15 165.852 608.707 166.97 607.737 167.392C600.271 170.681 593.818 173.296 588.04 175.384C587.829 175.468 587.597 175.489 587.386 175.489ZM537.513 178.927C537.323 178.927 537.133 178.884 536.943 178.821C530.87 176.923 524.396 174.245 517.141 170.681C516.213 170.217 515.813 169.058 516.277 168.109C516.762 167.16 517.901 166.78 518.85 167.244C525.914 170.724 532.22 173.317 538.082 175.173C539.094 175.489 539.664 176.565 539.347 177.577C539.073 178.399 538.335 178.927 537.513 178.927ZM152.335 180.782C152.187 180.782 152.04 180.782 151.871 180.74C145.903 179.264 139.049 177.134 131.5 174.435C130.509 174.076 129.982 172.98 130.34 171.989C130.699 170.977 131.795 170.471 132.786 170.829C140.23 173.486 146.958 175.574 152.799 177.029C153.832 177.282 154.444 178.315 154.191 179.348C153.98 180.213 153.2 180.782 152.335 180.782ZM556.534 182.258C555.733 182.258 554.932 182.237 554.151 182.195C553.434 182.153 552.696 182.111 551.958 182.047C550.904 181.942 550.145 180.993 550.25 179.939C550.334 178.905 551.283 178.125 552.338 178.231C553.013 178.294 553.708 178.336 554.362 178.378C559.444 178.652 565.581 177.914 572.582 176.164C573.616 175.911 574.649 176.544 574.902 177.556C575.176 178.589 574.544 179.622 573.51 179.875C567.078 181.478 561.511 182.258 556.534 182.258ZM170.134 183.439C169.142 183.439 168.067 183.418 166.97 183.334C165.916 183.271 165.136 182.343 165.199 181.288C165.262 180.255 166.19 179.454 167.245 179.517C168.826 179.622 170.302 179.644 171.631 179.58C176.376 179.369 181.669 178.378 187.321 176.628C188.333 176.312 189.408 176.881 189.704 177.893C190.02 178.905 189.472 179.981 188.459 180.276C182.47 182.132 176.882 183.165 171.821 183.418C171.272 183.439 170.703 183.439 170.134 183.439Z" fill="#4AD66D"/>
</g>
<path d="M53.1569 138.755C52.8406 138.755 52.5453 138.692 52.2712 138.544C46.5563 135.571 43.0767 133.673 43.0556 133.652C42.1277 133.146 41.7903 131.986 42.2964 131.058C42.8026 130.13 43.9624 129.793 44.8903 130.299C44.9114 130.32 48.3488 132.197 54.0215 135.149C54.9705 135.634 55.329 136.794 54.844 137.743C54.5066 138.397 53.8317 138.755 53.1569 138.755Z" fill="#4AD66D"/>
</svg>
